<svg xmlns="http://www.w3.org/2000/svg" xmlns:xlink="http://www.w3.org/1999/xlink" width="500" zoomAndPan="magnify" viewBox="0 0 375 374.999991" height="500" preserveAspectRatio="xMidYMid meet" version="1.0"><defs><g/><clipPath id="5ef8aebb08"><path d="M 153.832031 135.242188 L 184.152344 135.242188 L 184.152344 159 L 153.832031 159 Z M 153.832031 135.242188 " clip-rule="nonzero"/></clipPath><clipPath id="e2f8f95b49"><path d="M 180.28125 153.046875 L 171.511719 145.726562 C 170.578125 144.980469 169.457031 144.609375 168.339844 144.703125 C 167.265625 144.796875 166.238281 145.308594 165.445312 146.242188 C 164.699219 147.171875 164.375 148.292969 164.46875 149.410156 C 164.558594 150.527344 165.074219 151.648438 165.960938 152.441406 L 173.191406 158.964844 Z M 170.765625 158.964844 L 164.933594 153.699219 C 163.71875 152.578125 163.019531 151.089844 162.878906 149.550781 C 162.742188 148.011719 163.160156 146.425781 164.234375 145.167969 C 165.261719 143.910156 166.753906 143.164062 168.246094 143.070312 C 169.738281 142.929688 171.324219 143.398438 172.582031 144.46875 L 181.539062 151.972656 L 184.105469 149.78125 L 167.546875 135.660156 C 163.535156 141.019531 158.121094 146.054688 153.925781 149.269531 L 165.121094 159.011719 L 170.765625 159.011719 Z M 170.765625 158.964844 " clip-rule="nonzero"/></clipPath><clipPath id="a4b3768392"><path d="M 179.488281 135.707031 L 221 135.707031 L 221 159 L 179.488281 159 Z M 179.488281 135.707031 " clip-rule="nonzero"/></clipPath><clipPath id="7cf9fc675a"><path d="M 187.464844 158.964844 L 203.328125 145.726562 C 204.257812 144.980469 205.378906 144.609375 206.5 144.703125 C 207.570312 144.796875 208.597656 145.308594 209.390625 146.242188 C 210.136719 147.171875 210.464844 148.292969 210.371094 149.410156 C 210.277344 150.527344 209.765625 151.648438 208.878906 152.441406 L 201.648438 158.964844 Z M 204.074219 158.964844 L 209.902344 153.699219 C 211.117188 152.578125 211.816406 151.089844 211.957031 149.550781 C 212.097656 148.011719 211.675781 146.425781 210.605469 145.167969 C 209.578125 143.910156 208.085938 143.164062 206.589844 143.070312 C 205.050781 142.929688 203.511719 143.398438 202.253906 144.46875 L 184.851562 159.011719 L 179.90625 159.011719 L 207.292969 135.707031 C 211.304688 141.066406 216.714844 146.101562 220.914062 149.316406 L 209.71875 159.058594 L 204.074219 159.058594 Z M 204.074219 158.964844 " clip-rule="nonzero"/></clipPath><clipPath id="6f29378f9b"><path d="M 70.792969 78 L 304.042969 78 L 304.042969 297 L 70.792969 297 Z M 70.792969 78 " clip-rule="nonzero"/></clipPath><clipPath id="d1e9d54501"><path d="M 96 79.773438 L 278.851562 79.773438 L 278.851562 134.308594 L 96 134.308594 Z M 96 79.773438 " clip-rule="nonzero"/></clipPath><clipPath id="0dfd306fcd"><path d="M 108.90625 127.082031 L 96.21875 134.121094 L 109 126.523438 C 108.953125 126.664062 108.90625 126.898438 108.90625 127.082031 M 265.835938 126.476562 L 278.621094 134.074219 L 265.929688 127.035156 C 265.929688 126.898438 265.882812 126.664062 265.835938 126.476562 Z M 219.886719 99.164062 L 218.300781 100.65625 L 187.417969 83.546875 L 156.535156 100.65625 L 154.949219 99.164062 L 187.417969 79.867188 Z M 219.886719 99.164062 " clip-rule="nonzero"/></clipPath><clipPath id="99e8c8e06f"><path d="M 87 72.203125 L 288 72.203125 L 288 302.453125 L 87 302.453125 Z M 87 72.203125 " clip-rule="nonzero"/></clipPath><clipPath id="d9aa630e4b"><path d="M 87.585938 72.316406 L 287.25 72.316406 L 287.25 302.453125 L 87.585938 302.453125 Z M 87.585938 72.316406 " clip-rule="nonzero"/></clipPath><clipPath id="801736fc16"><path d="M 87.726562 153.464844 L 87.726562 129.832031 L 114.410156 114.453125 C 113.570312 115.757812 112.730469 117.15625 112.03125 118.507812 L 90.058594 131.183594 L 90.058594 153 Z M 287.109375 243.519531 L 287.109375 244.824219 C 253.894531 263.980469 220.632812 283.1875 187.417969 302.34375 C 154.203125 283.1875 120.941406 264.027344 87.726562 244.824219 L 87.726562 243.519531 L 91.320312 244.21875 L 187.417969 299.6875 L 283.519531 244.21875 Z M 260.425781 114.453125 L 287.109375 129.832031 L 287.109375 153.464844 L 284.777344 153 L 284.777344 131.183594 L 262.804688 118.507812 C 262.105469 117.109375 261.3125 115.757812 260.425781 114.453125 Z M 187.976562 72.640625 L 225.25 94.128906 L 223.480469 95.808594 L 187.417969 75.019531 L 151.359375 95.808594 L 149.585938 94.175781 C 162.179688 86.855469 174.824219 79.585938 187.417969 72.316406 Z M 187.976562 72.640625 " clip-rule="nonzero"/></clipPath><clipPath id="d1f9eea0d7"><path d="M 96.449219 240.582031 L 278.386719 240.582031 L 278.386719 295.585938 L 96.449219 295.585938 Z M 96.449219 240.582031 " clip-rule="nonzero"/></clipPath><clipPath id="02ce556e2d"><path d="M 278.246094 240.722656 L 187.558594 295.210938 L 96.824219 240.722656 L 187.558594 290.828125 Z M 278.246094 240.722656 " clip-rule="nonzero"/></clipPath><clipPath id="50e6b8bfb3"><path d="M 150.097656 239.652344 L 224.738281 239.652344 L 224.738281 252.703125 L 150.097656 252.703125 Z M 150.097656 239.652344 " clip-rule="nonzero"/></clipPath><clipPath id="eeba15eb92"><path d="M 154.625 245.476562 L 153.550781 248.738281 L 150.097656 248.738281 L 152.898438 250.742188 L 152.382812 252.328125 C 153.085938 252.234375 153.832031 252.140625 154.53125 252.050781 L 154.625 252.003906 L 154.671875 252.050781 C 155.324219 251.957031 155.976562 251.910156 156.675781 251.816406 L 156.351562 250.789062 L 159.148438 248.785156 L 155.695312 248.785156 Z M 220.214844 245.476562 L 219.140625 248.738281 L 215.6875 248.738281 L 217.972656 250.371094 C 219.328125 250.464844 220.679688 250.558594 222.03125 250.652344 L 224.691406 248.738281 L 221.238281 248.738281 Z M 187.417969 239.742188 L 184.945312 247.386719 L 176.921875 247.386719 L 180.515625 250 C 185.179688 249.8125 189.9375 249.71875 194.789062 249.71875 L 197.960938 247.433594 L 189.9375 247.433594 Z M 187.417969 239.742188 " clip-rule="nonzero"/></clipPath><clipPath id="7362721019"><path d="M 104.109375 139.183594 L 118.359375 139.183594 L 118.359375 153.433594 L 104.109375 153.433594 Z M 104.109375 139.183594 " clip-rule="nonzero"/></clipPath><clipPath id="591cfc0d99"><path d="M 256.449219 139.183594 L 270.699219 139.183594 L 270.699219 153.433594 L 256.449219 153.433594 Z M 256.449219 139.183594 " clip-rule="nonzero"/></clipPath><clipPath id="12b6ac3d33"><path d="M 173.992188 97.8125 L 200.992188 97.8125 L 200.992188 124.8125 L 173.992188 124.8125 Z M 173.992188 97.8125 " clip-rule="nonzero"/></clipPath></defs><path fill="#000000" d="M 125.140625 119.625 C 124.582031 120.789062 123.835938 122.609375 124.019531 124.007812 C 122.902344 124.613281 120.753906 125.636719 119.777344 124.847656 C 119.308594 124.472656 119.261719 123.726562 119.308594 123.167969 C 119.355469 122.050781 119.824219 120.835938 120.242188 119.8125 C 120.894531 118.320312 121.734375 116.828125 122.621094 115.476562 C 122.949219 115.011719 123.273438 114.5 123.601562 114.03125 L 126.960938 116.550781 C 126.261719 117.527344 125.652344 118.554688 125.140625 119.625 Z M 125.140625 119.625 " fill-opacity="1" fill-rule="nonzero"/><path fill="#000000" d="M 128.21875 114.824219 C 128.078125 115.058594 127.894531 115.289062 127.707031 115.523438 L 124.488281 112.867188 C 124.675781 112.632812 124.859375 112.402344 125.046875 112.167969 Z M 128.21875 114.824219 " fill-opacity="1" fill-rule="nonzero"/><path fill="#000000" d="M 130.878906 111.703125 C 130.691406 111.886719 130.503906 112.121094 130.320312 112.308594 L 127.148438 109.695312 C 127.332031 109.511719 127.519531 109.277344 127.707031 109.089844 Z M 130.878906 111.703125 " fill-opacity="1" fill-rule="nonzero"/><path fill="#000000" d="M 141.28125 110.488281 C 139.554688 113.191406 137.550781 115.804688 135.449219 118.226562 C 133.304688 120.699219 131.066406 123.027344 128.640625 125.171875 C 126.632812 126.945312 124.441406 128.667969 122.15625 130.113281 C 120.335938 131.230469 116.929688 133.144531 114.316406 132.816406 L 117.304688 135.285156 C 118.75 135.984375 121.59375 135.007812 125.140625 132.769531 C 129.199219 130.253906 133.910156 126.058594 138.4375 120.835938 C 138.855469 120.371094 139.277344 119.859375 139.695312 119.347656 C 143.753906 114.40625 146.832031 109.511719 148.464844 105.503906 C 149.820312 102.238281 150.285156 99.722656 149.632812 98.511719 L 146.648438 95.714844 C 147.300781 98.136719 145.992188 101.632812 145.152344 103.40625 C 144.128906 105.875 142.726562 108.253906 141.28125 110.488281 Z M 141.28125 110.488281 " fill-opacity="1" fill-rule="nonzero"/><path fill="#000000" d="M 144.3125 123.449219 C 143.894531 123.914062 143.472656 124.425781 143.054688 124.9375 C 138.53125 130.207031 133.769531 134.402344 129.710938 136.964844 C 127.054688 138.644531 124.628906 139.621094 122.714844 139.667969 L 124.160156 140.878906 C 125.652344 141.484375 128.453125 140.507812 131.90625 138.363281 C 135.917969 135.894531 140.582031 131.746094 145.058594 126.570312 C 145.433594 126.105469 145.851562 125.636719 146.273438 125.125 C 150.332031 120.183594 153.316406 115.335938 154.949219 111.375 C 156.210938 108.207031 156.675781 105.78125 156.117188 104.523438 L 154.484375 102.984375 C 154.671875 104.757812 154.15625 106.992188 153.132812 109.464844 C 151.5 113.519531 148.417969 118.460938 144.3125 123.449219 Z M 144.3125 123.449219 " fill-opacity="1" fill-rule="nonzero"/><path fill="#000000" d="M 141.09375 120.605469 C 140.675781 121.070312 140.300781 121.582031 139.835938 122.097656 C 135.265625 127.363281 130.460938 131.605469 126.402344 134.167969 C 123.742188 135.847656 121.269531 136.824219 119.355469 136.871094 L 120.800781 138.035156 C 122.296875 138.691406 125.09375 137.710938 128.59375 135.519531 C 132.605469 133.003906 137.316406 128.855469 141.796875 123.632812 C 142.167969 123.167969 142.589844 122.703125 143.007812 122.1875 C 147.066406 117.25 150.097656 112.355469 151.730469 108.390625 C 153.039062 105.222656 153.503906 102.753906 152.898438 101.492188 L 151.21875 99.957031 C 151.453125 101.726562 150.984375 104.011719 149.957031 106.574219 C 148.28125 110.628906 145.199219 115.617188 141.09375 120.605469 Z M 141.09375 120.605469 " fill-opacity="1" fill-rule="nonzero"/><path fill="#000000" d="M 170.4375 117.902344 L 157.65625 105.96875 C 157.84375 107.738281 157.375 109.929688 156.394531 112.492188 C 154.761719 116.503906 151.683594 121.441406 147.625 126.382812 C 147.207031 126.898438 146.785156 127.363281 146.367188 127.875 C 141.839844 133.097656 137.128906 137.292969 133.070312 139.808594 C 130.414062 141.441406 127.988281 142.417969 126.074219 142.464844 L 138.203125 152.441406 C 140.535156 154.492188 144.265625 153.605469 148.234375 151.320312 C 156.117188 146.800781 176.269531 127.875 170.4375 117.902344 Z M 157.097656 141.347656 C 153.457031 144.65625 148.046875 145.308594 144.96875 142.839844 C 141.933594 140.320312 142.402344 135.613281 146.085938 132.304688 C 149.726562 128.996094 155.136719 128.296875 158.167969 130.8125 C 161.203125 133.328125 160.734375 138.035156 157.097656 141.347656 Z M 166.425781 132.257812 L 153.039062 120.835938 C 153.316406 120.417969 153.550781 120.042969 153.832031 119.625 C 153.878906 119.578125 153.925781 119.484375 153.96875 119.390625 L 167.171875 130.953125 C 166.9375 131.417969 166.660156 131.835938 166.425781 132.257812 Z M 168.757812 127.644531 L 155.882812 116.035156 C 156.441406 115.011719 156.957031 113.9375 157.375 112.867188 C 157.515625 112.539062 157.609375 112.214844 157.75 111.886719 L 169.972656 123.167969 C 169.785156 124.660156 169.320312 126.199219 168.757812 127.644531 Z M 158.214844 110.535156 C 158.402344 109.835938 158.589844 109.136719 158.683594 108.390625 L 169.597656 118.554688 C 169.691406 118.785156 169.785156 119.066406 169.832031 119.253906 C 170.019531 119.953125 170.113281 120.699219 170.113281 121.441406 Z M 158.214844 110.535156 " fill-opacity="1" fill-rule="nonzero"/><path fill="#000000" d="M 139.371094 106.246094 C 137.96875 106.246094 136.195312 107.320312 135.171875 108.019531 C 134.050781 108.8125 132.929688 109.742188 131.90625 110.722656 L 128.78125 108.019531 C 129.339844 107.460938 129.898438 106.902344 130.503906 106.386719 C 131.71875 105.316406 133.070312 104.242188 134.472656 103.359375 C 135.402344 102.753906 136.570312 102.144531 137.691406 101.867188 C 138.25 101.726562 139.042969 101.679688 139.507812 102.054688 C 140.441406 102.84375 139.789062 105.082031 139.371094 106.246094 Z M 139.371094 106.246094 " fill-opacity="1" fill-rule="nonzero"/><path fill="#000000" d="M 145.199219 94.316406 C 141.886719 91.613281 132 97.765625 123.089844 108.066406 C 114.226562 118.367188 109.652344 128.949219 112.964844 131.652344 C 116.277344 134.402344 126.167969 128.203125 135.078125 117.902344 C 143.941406 107.597656 148.511719 97.019531 145.199219 94.316406 Z M 133.398438 116.550781 C 127.753906 123.074219 121.503906 126.988281 119.402344 125.265625 C 117.304688 123.539062 120.195312 116.875 125.839844 110.351562 C 131.484375 103.824219 137.738281 99.910156 139.835938 101.632812 C 141.933594 103.359375 139.042969 110.023438 133.398438 116.550781 Z M 133.398438 116.550781 " fill-opacity="1" fill-rule="nonzero"/><path fill="#000000" d="M 156.628906 140.925781 C 153.96875 143.351562 148.09375 144.328125 145.574219 142.277344 C 143.054688 140.226562 143.195312 137.246094 145.015625 134.496094 C 145.105469 135.847656 144.875 136.40625 146.832031 137.992188 C 148.792969 139.574219 155.929688 138.457031 157.890625 136.636719 C 159.847656 134.867188 159.007812 135.472656 159.429688 134.820312 C 159.570312 136.824219 159.289062 138.503906 156.628906 140.925781 Z M 156.628906 140.925781 " fill-opacity="1" fill-rule="nonzero"/><path fill="#000000" d="M 180.28125 153.046875 L 171.511719 145.726562 C 170.578125 144.980469 169.457031 144.609375 168.339844 144.703125 C 167.265625 144.796875 166.238281 145.308594 165.445312 146.242188 C 164.699219 147.171875 164.375 148.292969 164.46875 149.410156 C 164.558594 150.527344 165.074219 151.648438 165.960938 152.441406 L 173.191406 158.964844 Z M 170.765625 158.964844 L 164.933594 153.699219 C 163.71875 152.578125 163.019531 151.089844 162.878906 149.550781 C 162.742188 148.011719 163.160156 146.425781 164.234375 145.167969 C 165.261719 143.910156 166.753906 143.164062 168.246094 143.070312 C 169.738281 142.929688 171.324219 143.398438 172.582031 144.46875 L 181.539062 151.972656 L 184.105469 149.78125 L 167.546875 135.660156 C 163.535156 141.019531 158.121094 146.054688 153.925781 149.269531 L 165.121094 159.011719 L 170.765625 159.011719 Z M 170.765625 158.964844 " fill-opacity="1" fill-rule="nonzero"/><g clip-path="url(#5ef8aebb08)"><g clip-path="url(#e2f8f95b49)"><path fill="#000000" d="M 153.878906 135.660156 L 184.105469 135.660156 L 184.105469 158.964844 L 153.878906 158.964844 Z M 153.878906 135.660156 " fill-opacity="1" fill-rule="nonzero"/></g></g><path fill="#000000" d="M 241.765625 139.761719 C 237.707031 137.246094 232.996094 133.050781 228.46875 127.828125 C 228.050781 127.316406 227.632812 126.851562 227.210938 126.335938 C 223.152344 121.398438 220.074219 116.457031 218.441406 112.445312 C 217.460938 109.929688 216.996094 107.738281 217.179688 105.96875 L 204.398438 117.902344 C 198.566406 127.875 218.722656 146.800781 226.605469 151.273438 C 230.570312 153.558594 234.300781 154.445312 236.632812 152.394531 L 248.761719 142.417969 C 246.851562 142.371094 244.425781 141.394531 241.765625 139.761719 Z M 205.003906 119.253906 C 205.050781 119.066406 205.144531 118.785156 205.238281 118.554688 L 216.15625 108.390625 C 216.25 109.136719 216.433594 109.835938 216.621094 110.535156 L 204.726562 121.441406 C 204.726562 120.699219 204.820312 119.953125 205.003906 119.253906 Z M 204.867188 123.167969 L 217.089844 111.886719 C 217.226562 112.214844 217.320312 112.539062 217.460938 112.867188 C 217.882812 113.9375 218.394531 115.011719 218.953125 116.035156 L 206.078125 127.644531 C 205.519531 126.199219 205.050781 124.660156 204.867188 123.167969 Z M 207.664062 130.953125 L 220.914062 119.390625 C 220.960938 119.484375 221.007812 119.578125 221.054688 119.625 C 221.285156 120.042969 221.519531 120.417969 221.800781 120.835938 L 208.410156 132.257812 C 208.179688 131.835938 207.898438 131.417969 207.664062 130.953125 Z M 229.917969 142.839844 C 226.839844 145.308594 221.425781 144.65625 217.789062 141.347656 C 214.101562 138.035156 213.636719 133.328125 216.667969 130.8125 C 219.699219 128.296875 225.113281 128.996094 228.796875 132.304688 C 232.484375 135.613281 232.949219 140.320312 229.917969 142.839844 Z M 229.917969 142.839844 " fill-opacity="1" fill-rule="nonzero"/><path fill="#000000" d="M 218.722656 104.523438 C 218.160156 105.78125 218.628906 108.207031 219.886719 111.375 C 221.519531 115.335938 224.503906 120.183594 228.5625 125.125 C 228.984375 125.636719 229.402344 126.105469 229.777344 126.570312 C 234.253906 131.746094 238.921875 135.894531 242.933594 138.363281 C 246.382812 140.507812 249.183594 141.484375 250.675781 140.878906 L 252.121094 139.667969 C 250.210938 139.621094 247.785156 138.644531 245.125 136.964844 C 241.066406 134.402344 236.308594 130.207031 231.78125 124.984375 C 231.363281 124.472656 230.941406 123.960938 230.523438 123.496094 C 226.417969 118.507812 223.339844 113.566406 221.707031 109.511719 C 220.679688 106.992188 220.167969 104.757812 220.355469 102.984375 Z M 218.722656 104.523438 " fill-opacity="1" fill-rule="nonzero"/><path fill="#000000" d="M 221.941406 101.492188 C 221.332031 102.753906 221.800781 105.222656 223.105469 108.390625 C 224.738281 112.355469 227.769531 117.25 231.828125 122.1875 C 232.25 122.703125 232.667969 123.167969 233.042969 123.632812 C 237.519531 128.855469 242.230469 133.003906 246.246094 135.519531 C 249.742188 137.710938 252.542969 138.691406 254.035156 138.035156 L 255.480469 136.871094 C 253.566406 136.824219 251.097656 135.847656 248.4375 134.167969 C 244.378906 131.605469 239.574219 127.363281 235 122.097656 C 234.535156 121.582031 234.160156 121.070312 233.742188 120.605469 C 229.636719 115.617188 226.558594 110.628906 224.878906 106.574219 C 223.851562 104.011719 223.386719 101.726562 223.617188 99.957031 Z M 221.941406 101.492188 " fill-opacity="1" fill-rule="nonzero"/><path fill="#000000" d="M 229.265625 142.277344 C 226.746094 144.328125 220.867188 143.351562 218.207031 140.925781 C 215.546875 138.503906 215.269531 136.824219 215.410156 134.820312 C 215.828125 135.472656 214.988281 134.867188 216.949219 136.636719 C 218.90625 138.457031 226.042969 139.574219 228.003906 137.992188 C 229.964844 136.40625 229.730469 135.847656 229.824219 134.496094 C 231.644531 137.246094 231.78125 140.226562 229.265625 142.277344 Z M 229.265625 142.277344 " fill-opacity="1" fill-rule="nonzero"/><path fill="#000000" d="M 250.347656 112.867188 L 247.128906 115.523438 C 246.945312 115.289062 246.757812 115.058594 246.617188 114.824219 L 249.789062 112.167969 C 249.976562 112.402344 250.164062 112.632812 250.347656 112.867188 Z M 250.347656 112.867188 " fill-opacity="1" fill-rule="nonzero"/><path fill="#000000" d="M 251.75 108.066406 C 242.839844 97.765625 232.949219 91.613281 229.636719 94.316406 C 226.324219 97.019531 230.894531 107.597656 239.761719 117.902344 C 248.671875 128.203125 258.558594 134.402344 261.871094 131.652344 C 265.183594 128.949219 260.613281 118.367188 251.75 108.066406 Z M 255.433594 125.265625 C 253.335938 126.988281 247.085938 123.074219 241.4375 116.550781 C 235.792969 110.023438 232.902344 103.359375 235 101.632812 C 237.101562 99.910156 243.351562 103.824219 248.996094 110.351562 C 254.640625 116.875 257.535156 123.539062 255.433594 125.265625 Z M 255.433594 125.265625 " fill-opacity="1" fill-rule="nonzero"/><path fill="#000000" d="M 225.207031 98.511719 C 224.550781 99.722656 225.019531 102.238281 226.371094 105.503906 C 228.003906 109.511719 231.082031 114.40625 235.140625 119.347656 C 235.5625 119.859375 235.980469 120.371094 236.402344 120.835938 C 240.925781 126.058594 245.636719 130.253906 249.695312 132.769531 C 253.242188 135.007812 256.085938 135.984375 257.535156 135.285156 L 260.519531 132.816406 C 257.90625 133.144531 254.5 131.230469 252.683594 130.113281 C 250.394531 128.667969 248.203125 126.945312 246.199219 125.171875 C 243.773438 123.027344 241.53125 120.699219 239.386719 118.226562 C 237.289062 115.804688 235.328125 113.191406 233.554688 110.488281 C 232.109375 108.253906 230.710938 105.875 229.683594 103.40625 C 228.84375 101.632812 227.539062 98.136719 228.191406 95.714844 Z M 225.207031 98.511719 " fill-opacity="1" fill-rule="nonzero"/><path fill="#000000" d="M 246.058594 108.019531 L 242.933594 110.722656 C 241.90625 109.742188 240.785156 108.8125 239.667969 108.019531 C 238.640625 107.320312 236.867188 106.246094 235.46875 106.246094 C 235.046875 105.082031 234.394531 102.84375 235.328125 102.054688 C 235.792969 101.679688 236.585938 101.773438 237.148438 101.867188 C 238.265625 102.144531 239.433594 102.753906 240.367188 103.359375 C 241.765625 104.242188 243.117188 105.316406 244.332031 106.386719 C 244.9375 106.902344 245.496094 107.460938 246.058594 108.019531 Z M 246.058594 108.019531 " fill-opacity="1" fill-rule="nonzero"/><path fill="#000000" d="M 247.691406 109.695312 L 244.519531 112.308594 C 244.332031 112.121094 244.144531 111.886719 243.957031 111.703125 L 247.128906 109.089844 C 247.316406 109.277344 247.503906 109.511719 247.691406 109.695312 Z M 247.691406 109.695312 " fill-opacity="1" fill-rule="nonzero"/><path fill="#000000" d="M 255.0625 124.847656 C 254.082031 125.636719 251.9375 124.613281 250.816406 124.007812 C 251.003906 122.609375 250.257812 120.789062 249.695312 119.625 C 249.183594 118.554688 248.578125 117.527344 247.878906 116.550781 L 251.234375 114.03125 C 251.5625 114.5 251.9375 115.011719 252.214844 115.476562 C 253.101562 116.828125 253.941406 118.320312 254.59375 119.8125 C 255.015625 120.835938 255.480469 122.050781 255.527344 123.167969 C 255.574219 123.726562 255.527344 124.472656 255.0625 124.847656 Z M 255.0625 124.847656 " fill-opacity="1" fill-rule="nonzero"/><path fill="#000000" d="M 187.464844 158.964844 L 203.328125 145.726562 C 204.257812 144.980469 205.378906 144.609375 206.5 144.703125 C 207.570312 144.796875 208.597656 145.308594 209.390625 146.242188 C 210.136719 147.171875 210.464844 148.292969 210.371094 149.410156 C 210.277344 150.527344 209.765625 151.648438 208.878906 152.441406 L 201.648438 158.964844 Z M 204.074219 158.964844 L 209.902344 153.699219 C 211.117188 152.578125 211.816406 151.089844 211.957031 149.550781 C 212.097656 148.011719 211.675781 146.425781 210.605469 145.167969 C 209.578125 143.910156 208.085938 143.164062 206.59375 143.070312 C 205.050781 142.929688 203.511719 143.398438 202.253906 144.46875 L 184.851562 159.011719 L 179.90625 159.011719 L 207.292969 135.707031 C 211.304688 141.066406 216.714844 146.101562 220.914062 149.316406 L 209.71875 159.058594 L 204.074219 159.058594 Z M 204.074219 158.964844 " fill-opacity="1" fill-rule="nonzero"/><g clip-path="url(#a4b3768392)"><g clip-path="url(#7cf9fc675a)"><path fill="#000000" d="M 179.90625 135.660156 L 220.960938 135.660156 L 220.960938 158.964844 L 179.90625 158.964844 Z M 179.90625 135.660156 " fill-opacity="1" fill-rule="nonzero"/></g></g><g clip-path="url(#6f29378f9b)"><path fill="#c90000" d="M 92.8125 158.964844 L 70.792969 158.964844 L 92.8125 154.675781 L 92.8125 132.722656 L 110.074219 122.75 C 109.375 124.613281 108.765625 126.851562 108.765625 128.949219 L 108.8125 131.324219 L 99.625 136.636719 L 99.625 158.917969 Z M 282.023438 158.964844 L 304.042969 158.964844 L 282.023438 154.675781 L 282.023438 132.722656 L 264.765625 122.75 C 265.464844 124.613281 266.070312 126.851562 266.070312 128.949219 L 265.699219 131.136719 L 275.214844 136.636719 L 275.214844 158.917969 Z M 92.8125 238.019531 L 70.792969 238.019531 L 93.746094 242.492188 L 140.117188 269.25 L 187.417969 296.515625 L 234.722656 269.203125 L 281.09375 242.445312 L 304.042969 237.972656 L 275.214844 237.972656 L 231.316406 263.328125 L 187.417969 288.6875 L 143.519531 263.328125 L 99.625 237.972656 Z M 187.417969 78.1875 L 221.378906 97.765625 L 216.203125 102.613281 L 187.417969 86.019531 L 158.636719 102.613281 L 153.457031 97.765625 Z M 187.417969 78.1875 " fill-opacity="1" fill-rule="evenodd"/></g><path fill="#ba3a08" d="M 108.90625 127.082031 L 96.21875 134.121094 L 109 126.523438 C 108.953125 126.664062 108.90625 126.898438 108.90625 127.082031 M 265.835938 126.476562 L 278.621094 134.074219 L 265.929688 127.035156 C 265.929688 126.898438 265.882812 126.664062 265.835938 126.476562 Z M 219.886719 99.164062 L 218.300781 100.65625 L 187.417969 83.546875 L 156.535156 100.65625 L 154.949219 99.164062 L 187.417969 79.867188 Z M 219.886719 99.164062 " fill-opacity="1" fill-rule="nonzero"/><g clip-path="url(#d1e9d54501)"><g clip-path="url(#0dfd306fcd)"><path fill="#c90000" d="M 96.21875 79.867188 L 278.667969 79.867188 L 278.667969 134.121094 L 96.21875 134.121094 Z M 96.21875 79.867188 " fill-opacity="1" fill-rule="nonzero"/></g></g><g clip-path="url(#99e8c8e06f)"><path fill="#000000" d="M 87.726562 153.464844 L 87.726562 129.832031 L 114.410156 114.453125 C 113.570312 115.757812 112.730469 117.15625 112.03125 118.507812 L 90.058594 131.183594 L 90.058594 153 Z M 287.109375 243.519531 L 287.109375 244.824219 C 253.894531 263.980469 220.632812 283.1875 187.417969 302.34375 C 154.203125 283.1875 120.941406 264.027344 87.726562 244.824219 L 87.726562 243.519531 L 91.320312 244.21875 L 187.417969 299.6875 L 283.519531 244.21875 Z M 260.425781 114.453125 L 287.109375 129.832031 L 287.109375 153.464844 L 284.777344 153 L 284.777344 131.183594 L 262.804688 118.507812 C 262.105469 117.109375 261.3125 115.757812 260.425781 114.453125 Z M 187.976562 72.640625 L 225.25 94.128906 L 223.480469 95.808594 L 187.417969 75.019531 L 151.359375 95.808594 L 149.585938 94.175781 C 162.179688 86.855469 174.824219 79.585938 187.417969 72.316406 Z M 187.976562 72.640625 " fill-opacity="1" fill-rule="nonzero"/></g><g clip-path="url(#d9aa630e4b)"><g clip-path="url(#801736fc16)"><path fill="#000000" d="M 87.726562 72.316406 L 287.15625 72.316406 L 287.15625 302.390625 L 87.726562 302.390625 Z M 87.726562 72.316406 " fill-opacity="1" fill-rule="nonzero"/></g></g><path fill="#ba3a08" d="M 278.246094 240.722656 L 187.558594 295.210938 L 96.824219 240.722656 L 187.558594 290.828125 Z M 278.246094 240.722656 " fill-opacity="1" fill-rule="nonzero"/><g clip-path="url(#d1f9eea0d7)"><g clip-path="url(#02ce556e2d)"><path fill="#c90000" d="M 96.824219 240.722656 L 278.246094 240.722656 L 278.246094 295.210938 L 96.824219 295.210938 Z M 96.824219 240.722656 " fill-opacity="1" fill-rule="nonzero"/></g></g><path fill="#c90000" d="M 154.625 240.957031 L 156.675781 247.339844 L 163.394531 247.339844 L 157.9375 251.257812 L 160.035156 257.640625 L 154.625 253.679688 L 149.210938 257.640625 L 151.3125 251.257812 L 145.851562 247.339844 L 152.570312 247.339844 Z M 220.214844 240.957031 L 222.265625 247.339844 L 228.984375 247.339844 L 223.527344 251.257812 L 225.625 257.640625 L 220.214844 253.679688 L 214.800781 257.640625 L 216.902344 251.257812 L 211.445312 247.339844 L 218.160156 247.339844 Z M 187.417969 235.222656 L 190.917969 245.988281 L 202.253906 245.988281 L 193.0625 252.609375 L 196.609375 263.375 L 187.417969 256.710938 L 178.273438 263.375 L 181.773438 252.609375 L 172.582031 245.988281 L 183.917969 245.988281 Z M 187.417969 235.222656 " fill-opacity="1" fill-rule="evenodd"/><path fill="#ba3a08" d="M 154.625 245.476562 L 153.550781 248.738281 L 150.097656 248.738281 L 152.898438 250.742188 L 152.382812 252.328125 C 153.085938 252.234375 153.832031 252.140625 154.53125 252.050781 L 154.625 252.003906 L 154.671875 252.050781 C 155.324219 251.957031 155.976562 251.910156 156.675781 251.816406 L 156.351562 250.789062 L 159.148438 248.785156 L 155.695312 248.785156 Z M 220.214844 245.476562 L 219.140625 248.738281 L 215.6875 248.738281 L 217.972656 250.371094 C 219.328125 250.464844 220.679688 250.558594 222.03125 250.652344 L 224.691406 248.738281 L 221.238281 248.738281 Z M 187.417969 239.742188 L 184.945312 247.386719 L 176.921875 247.386719 L 180.515625 250 C 185.179688 249.8125 189.9375 249.71875 194.789062 249.71875 L 197.960938 247.433594 L 189.9375 247.433594 Z M 187.417969 239.742188 " fill-opacity="1" fill-rule="nonzero"/><g clip-path="url(#50e6b8bfb3)"><g clip-path="url(#eeba15eb92)"><path fill="#c90000" d="M 150.097656 239.742188 L 224.691406 239.742188 L 224.691406 252.328125 L 150.097656 252.328125 Z M 150.097656 239.742188 " fill-opacity="1" fill-rule="nonzero"/></g></g><g clip-path="url(#7362721019)"><path fill="#ed6a08" d="M 117.839844 147.425781 C 118.121094 147.425781 118.347656 147.195312 118.347656 146.917969 L 118.347656 145.6875 C 118.347656 145.40625 118.121094 145.179688 117.839844 145.179688 L 117.3125 145.179688 C 117.03125 145.179688 116.738281 144.960938 116.652344 144.691406 L 116.203125 143.601562 C 116.070312 143.351562 116.125 142.988281 116.324219 142.792969 L 116.695312 142.417969 C 116.894531 142.222656 116.894531 141.898438 116.695312 141.699219 L 115.828125 140.832031 C 115.628906 140.632812 115.304688 140.632812 115.109375 140.832031 L 114.734375 141.203125 C 114.535156 141.402344 114.171875 141.457031 113.925781 141.324219 L 112.835938 140.875 C 112.566406 140.789062 112.347656 140.496094 112.347656 140.214844 L 112.347656 139.6875 C 112.347656 139.40625 112.121094 139.179688 111.839844 139.179688 L 110.609375 139.179688 C 110.332031 139.179688 110.101562 139.40625 110.101562 139.6875 L 110.101562 140.214844 C 110.101562 140.496094 109.882812 140.789062 109.617188 140.875 L 108.523438 141.324219 C 108.277344 141.457031 107.914062 141.402344 107.714844 141.203125 L 107.34375 140.832031 C 107.144531 140.632812 106.820312 140.632812 106.625 140.832031 L 105.753906 141.699219 C 105.558594 141.898438 105.558594 142.222656 105.753906 142.417969 L 106.128906 142.792969 C 106.324219 142.988281 106.378906 143.351562 106.246094 143.601562 L 105.796875 144.691406 C 105.714844 144.960938 105.417969 145.179688 105.140625 145.179688 L 104.613281 145.179688 C 104.332031 145.179688 104.101562 145.40625 104.101562 145.6875 L 104.101562 146.917969 C 104.101562 147.195312 104.332031 147.425781 104.613281 147.425781 L 105.140625 147.425781 C 105.417969 147.425781 105.714844 147.644531 105.796875 147.910156 L 106.246094 149.003906 C 106.378906 149.25 106.324219 149.613281 106.128906 149.8125 L 105.753906 150.183594 C 105.558594 150.382812 105.558594 150.707031 105.753906 150.902344 L 106.625 151.773438 C 106.820312 151.972656 107.144531 151.96875 107.34375 151.773438 L 107.714844 151.398438 C 107.914062 151.203125 108.277344 151.148438 108.523438 151.28125 L 109.617188 151.730469 C 109.882812 151.8125 110.101562 152.109375 110.101562 152.386719 L 110.101562 152.917969 C 110.101562 153.195312 110.332031 153.425781 110.609375 153.425781 L 111.839844 153.425781 C 112.121094 153.425781 112.347656 153.195312 112.347656 152.917969 L 112.347656 152.386719 C 112.347656 152.109375 112.566406 151.8125 112.835938 151.730469 L 113.925781 151.28125 C 114.171875 151.148438 114.539062 151.203125 114.734375 151.398438 L 115.109375 151.773438 C 115.304688 151.972656 115.628906 151.96875 115.828125 151.773438 L 116.695312 150.902344 C 116.894531 150.707031 116.894531 150.382812 116.695312 150.183594 L 116.324219 149.8125 C 116.125 149.613281 116.070312 149.25 116.203125 149.003906 L 116.652344 147.910156 C 116.738281 147.644531 117.03125 147.425781 117.3125 147.425781 Z M 111.226562 149.230469 C 109.605469 149.230469 108.296875 147.921875 108.296875 146.300781 C 108.296875 144.683594 109.605469 143.371094 111.226562 143.371094 C 112.84375 143.371094 114.15625 144.683594 114.15625 146.300781 C 114.15625 147.921875 112.84375 149.230469 111.226562 149.230469 Z M 111.226562 149.230469 " fill-opacity="1" fill-rule="nonzero"/></g><g clip-path="url(#591cfc0d99)"><path fill="#ed6a08" d="M 270.179688 147.425781 C 270.457031 147.425781 270.6875 147.195312 270.6875 146.917969 L 270.6875 145.6875 C 270.6875 145.40625 270.457031 145.179688 270.179688 145.179688 L 269.652344 145.179688 C 269.371094 145.179688 269.074219 144.960938 268.992188 144.691406 L 268.542969 143.601562 C 268.410156 143.351562 268.464844 142.988281 268.660156 142.792969 L 269.035156 142.417969 C 269.234375 142.222656 269.234375 141.898438 269.035156 141.699219 L 268.167969 140.832031 C 267.96875 140.632812 267.644531 140.632812 267.449219 140.832031 L 267.074219 141.203125 C 266.875 141.402344 266.511719 141.457031 266.265625 141.324219 L 265.171875 140.875 C 264.90625 140.789062 264.6875 140.496094 264.6875 140.214844 L 264.6875 139.6875 C 264.6875 139.40625 264.457031 139.179688 264.179688 139.179688 L 262.949219 139.179688 C 262.671875 139.179688 262.441406 139.40625 262.441406 139.6875 L 262.441406 140.214844 C 262.441406 140.496094 262.222656 140.789062 261.957031 140.875 L 260.863281 141.324219 C 260.617188 141.457031 260.253906 141.402344 260.054688 141.203125 L 259.679688 140.832031 C 259.484375 140.632812 259.160156 140.632812 258.960938 140.832031 L 258.09375 141.699219 C 257.894531 141.898438 257.894531 142.222656 258.09375 142.417969 L 258.46875 142.792969 C 258.664062 142.988281 258.71875 143.351562 258.585938 143.601562 L 258.136719 144.691406 C 258.054688 144.960938 257.757812 145.179688 257.476562 145.179688 L 256.949219 145.179688 C 256.671875 145.179688 256.441406 145.40625 256.441406 145.6875 L 256.441406 146.917969 C 256.441406 147.195312 256.671875 147.425781 256.949219 147.425781 L 257.476562 147.425781 C 257.757812 147.425781 258.054688 147.644531 258.136719 147.910156 L 258.585938 149.003906 C 258.71875 149.25 258.664062 149.613281 258.46875 149.8125 L 258.09375 150.183594 C 257.894531 150.382812 257.894531 150.707031 258.09375 150.902344 L 258.960938 151.773438 C 259.160156 151.972656 259.484375 151.96875 259.679688 151.773438 L 260.054688 151.398438 C 260.253906 151.203125 260.617188 151.148438 260.863281 151.28125 L 261.957031 151.730469 C 262.222656 151.8125 262.441406 152.109375 262.441406 152.386719 L 262.441406 152.917969 C 262.441406 153.195312 262.671875 153.425781 262.949219 153.425781 L 264.179688 153.425781 C 264.457031 153.425781 264.6875 153.195312 264.6875 152.917969 L 264.6875 152.386719 C 264.6875 152.109375 264.90625 151.8125 265.171875 151.730469 L 266.265625 151.28125 C 266.511719 151.148438 266.875 151.203125 267.074219 151.398438 L 267.449219 151.773438 C 267.644531 151.972656 267.96875 151.96875 268.167969 151.773438 L 269.035156 150.902344 C 269.234375 150.707031 269.234375 150.382812 269.035156 150.183594 L 268.660156 149.8125 C 268.464844 149.613281 268.410156 149.25 268.542969 149.003906 L 268.992188 147.910156 C 269.074219 147.644531 269.371094 147.425781 269.652344 147.425781 Z M 263.5625 149.230469 C 261.945312 149.230469 260.632812 147.921875 260.632812 146.300781 C 260.632812 144.683594 261.945312 143.371094 263.5625 143.371094 C 265.183594 143.371094 266.496094 144.683594 266.496094 146.300781 C 266.496094 147.921875 265.183594 149.230469 263.5625 149.230469 Z M 263.5625 149.230469 " fill-opacity="1" fill-rule="nonzero"/></g><g clip-path="url(#12b6ac3d33)"><path fill="#ed6a08" d="M 200.007812 113.421875 C 200.539062 113.421875 200.972656 112.988281 200.972656 112.460938 L 200.972656 110.128906 C 200.972656 109.601562 200.539062 109.167969 200.007812 109.167969 L 199.007812 109.167969 C 198.480469 109.167969 197.917969 108.753906 197.761719 108.246094 L 196.910156 106.175781 C 196.660156 105.707031 196.761719 105.019531 197.132812 104.644531 L 197.84375 103.9375 C 198.214844 103.5625 198.214844 102.949219 197.84375 102.574219 L 196.195312 100.929688 C 195.820312 100.554688 195.207031 100.554688 194.832031 100.929688 L 194.125 101.636719 C 193.75 102.011719 193.0625 102.113281 192.59375 101.863281 L 190.523438 101.007812 C 190.015625 100.851562 189.601562 100.292969 189.601562 99.761719 L 189.601562 98.761719 C 189.601562 98.234375 189.167969 97.800781 188.640625 97.800781 L 186.3125 97.800781 C 185.78125 97.800781 185.347656 98.234375 185.347656 98.761719 L 185.347656 99.761719 C 185.347656 100.292969 184.933594 100.851562 184.429688 101.007812 L 182.355469 101.863281 C 181.890625 102.113281 181.199219 102.011719 180.828125 101.636719 L 180.117188 100.929688 C 179.742188 100.554688 179.132812 100.554688 178.757812 100.929688 L 177.109375 102.574219 C 176.734375 102.949219 176.734375 103.5625 177.109375 103.9375 L 177.816406 104.644531 C 178.191406 105.019531 178.292969 105.707031 178.042969 106.175781 L 177.191406 108.246094 C 177.035156 108.753906 176.472656 109.167969 175.945312 109.167969 L 174.945312 109.167969 C 174.414062 109.167969 173.980469 109.601562 173.980469 110.128906 L 173.980469 112.460938 C 173.980469 112.988281 174.414062 113.421875 174.945312 113.421875 L 175.945312 113.421875 C 176.472656 113.421875 177.035156 113.835938 177.191406 114.34375 L 178.042969 116.414062 C 178.292969 116.882812 178.191406 117.570312 177.820312 117.945312 L 177.109375 118.652344 C 176.734375 119.027344 176.734375 119.640625 177.109375 120.015625 L 178.757812 121.660156 C 179.132812 122.035156 179.742188 122.035156 180.117188 121.660156 L 180.828125 120.953125 C 181.203125 120.578125 181.890625 120.476562 182.355469 120.726562 L 184.429688 121.582031 C 184.933594 121.738281 185.347656 122.296875 185.347656 122.828125 L 185.347656 123.828125 C 185.347656 124.359375 185.78125 124.789062 186.3125 124.789062 L 188.640625 124.789062 C 189.171875 124.789062 189.605469 124.359375 189.605469 123.828125 L 189.605469 122.828125 C 189.605469 122.296875 190.019531 121.738281 190.523438 121.582031 L 192.597656 120.726562 C 193.0625 120.476562 193.75 120.578125 194.125 120.953125 L 194.832031 121.660156 C 195.207031 122.035156 195.820312 122.035156 196.195312 121.660156 L 197.84375 120.015625 C 198.214844 119.640625 198.21875 119.027344 197.84375 118.652344 L 197.132812 117.945312 C 196.761719 117.570312 196.660156 116.882812 196.910156 116.414062 L 197.761719 114.34375 C 197.917969 113.835938 198.480469 113.421875 199.007812 113.421875 Z M 187.476562 116.847656 C 184.410156 116.847656 181.921875 114.363281 181.921875 111.296875 C 181.921875 108.226562 184.410156 105.742188 187.476562 105.742188 C 190.542969 105.742188 193.027344 108.226562 193.027344 111.296875 C 193.027344 114.363281 190.542969 116.847656 187.476562 116.847656 Z M 187.476562 116.847656 " fill-opacity="1" fill-rule="nonzero"/></g><g fill="#000000" fill-opacity="1"><g transform="translate(42.962539, 214.817052)"><g><path d="M 1.828125 -41.328125 L 13.03125 -41.328125 C 16.050781 -41.328125 18.242188 -40.585938 19.609375 -39.109375 C 20.972656 -37.640625 21.65625 -35.234375 21.65625 -31.890625 L 21.65625 -30.0625 C 21.65625 -26.125 20.242188 -23.769531 17.421875 -23 C 19.148438 -22.550781 20.363281 -21.507812 21.0625 -19.875 C 21.769531 -18.238281 22.125 -16.070312 22.125 -13.375 C 22.125 -8.976562 21.46875 -5.648438 20.15625 -3.390625 C 18.84375 -1.128906 16.46875 0 13.03125 0 L 1.828125 0 Z M 11.59375 -25.78125 C 12.300781 -25.78125 12.78125 -26.046875 13.03125 -26.578125 C 13.289062 -27.109375 13.421875 -27.851562 13.421875 -28.8125 L 13.421875 -32.953125 C 13.421875 -34.296875 12.828125 -34.96875 11.640625 -34.96875 L 9.90625 -34.96875 L 9.90625 -25.78125 Z M 10.734375 -7.265625 C 12.878906 -7.265625 13.953125 -8.289062 13.953125 -10.34375 L 13.953125 -15.484375 C 13.953125 -16.742188 13.765625 -17.691406 13.390625 -18.328125 C 13.023438 -18.972656 12.378906 -19.296875 11.453125 -19.296875 L 9.90625 -19.296875 L 9.90625 -7.3125 Z M 10.734375 -7.265625 "/></g></g></g><g fill="#000000" fill-opacity="1"><g transform="translate(66.005034, 214.817052)"><g><path d="M 1.4375 0 L 1.4375 -41.328125 L 9.421875 -41.328125 L 9.421875 0 Z M 1.25 -43.484375 L 1.25 -50.515625 L 9.65625 -50.515625 L 9.65625 -43.484375 Z M 1.25 -43.484375 "/></g></g></g><g fill="#000000" fill-opacity="1"><g transform="translate(76.924963, 214.817052)"><g><path d="M 1.828125 -41.328125 L 14.53125 -41.328125 C 16.550781 -41.328125 18.113281 -40.867188 19.21875 -39.953125 C 20.320312 -39.035156 21.066406 -37.75 21.453125 -36.09375 C 21.835938 -34.445312 22.03125 -32.34375 22.03125 -29.78125 C 22.03125 -27.4375 21.722656 -25.609375 21.109375 -24.296875 C 20.503906 -22.984375 19.445312 -22.066406 17.9375 -21.546875 C 19.195312 -21.296875 20.101562 -20.671875 20.65625 -19.671875 C 21.21875 -18.679688 21.5 -17.335938 21.5 -15.640625 L 21.40625 0 L 13.328125 0 L 13.328125 -16.171875 C 13.328125 -17.316406 13.101562 -18.050781 12.65625 -18.375 C 12.207031 -18.695312 11.390625 -18.859375 10.203125 -18.859375 L 10.203125 0 L 1.828125 0 Z M 12.21875 -26.03125 C 13.375 -26.03125 13.953125 -27.28125 13.953125 -29.78125 C 13.953125 -30.875 13.898438 -31.691406 13.796875 -32.234375 C 13.703125 -32.773438 13.523438 -33.148438 13.265625 -33.359375 C 13.015625 -33.566406 12.648438 -33.671875 12.171875 -33.671875 L 10.25 -33.671875 L 10.25 -26.03125 Z M 12.21875 -26.03125 "/></g></g></g><g fill="#000000" fill-opacity="1"><g transform="translate(99.871246, 214.817052)"><g><path d="M 1.4375 0 L 1.4375 -41.328125 L 9.421875 -41.328125 L 9.421875 0 Z M 1.25 -43.484375 L 1.25 -50.515625 L 9.65625 -50.515625 L 9.65625 -43.484375 Z M 1.25 -43.484375 "/></g></g></g><g fill="#000000" fill-opacity="1"><g transform="translate(110.791175, 214.817052)"><g><path d="M 1.828125 0 L 1.828125 -41.328125 L 14.4375 -41.328125 L 17.890625 -16.109375 L 21.359375 -41.328125 L 34.0625 -41.328125 L 34.0625 0 L 26.515625 0 L 26.515625 -29.78125 L 21.75 0 L 14.34375 0 L 9.28125 -29.78125 L 9.28125 0 Z M 1.828125 0 "/></g></g></g><g fill="#000000" fill-opacity="1"><g transform="translate(146.677819, 214.817052)"><g/></g></g><g fill="#000000" fill-opacity="1"><g transform="translate(157.934491, 214.817052)"><g><path d="M 1.828125 0 L 1.828125 -41.328125 L 18.375 -41.328125 L 18.375 -33.34375 L 10.25 -33.34375 L 10.25 -25.3125 L 18.046875 -25.3125 L 18.046875 -17.515625 L 10.25 -17.515625 L 10.25 -8.03125 L 18.90625 -8.03125 L 18.90625 0 Z M 1.828125 0 "/></g></g></g><g fill="#000000" fill-opacity="1"><g transform="translate(177.753917, 214.817052)"><g><path d="M 1.828125 0 L 1.828125 -41.328125 L 10.34375 -41.328125 L 14.140625 -21.546875 L 14.140625 -41.328125 L 22.125 -41.328125 L 22.125 0 L 14.046875 0 L 9.90625 -20.6875 L 9.90625 0 Z M 1.828125 0 "/></g></g></g><g fill="#000000" fill-opacity="1"><g transform="translate(201.710416, 214.817052)"><g><path d="M 11.015625 0.390625 C 9.117188 0.390625 7.398438 0.0195312 5.859375 -0.71875 C 4.328125 -1.457031 3.117188 -2.539062 2.234375 -3.96875 C 1.359375 -5.394531 0.921875 -7.117188 0.921875 -9.140625 L 0.921875 -19.484375 L 9.046875 -19.484375 L 9.046875 -9.625 C 9.046875 -8.882812 9.195312 -8.296875 9.5 -7.859375 C 9.800781 -7.429688 10.273438 -7.21875 10.921875 -7.21875 C 11.523438 -7.21875 11.976562 -7.414062 12.28125 -7.8125 C 12.59375 -8.21875 12.75 -8.789062 12.75 -9.53125 L 12.75 -41.328125 L 21.078125 -41.328125 L 21.078125 -10.34375 C 21.078125 -8.195312 20.648438 -6.3125 19.796875 -4.6875 C 18.941406 -3.070312 17.753906 -1.820312 16.234375 -0.9375 C 14.710938 -0.0507812 12.972656 0.390625 11.015625 0.390625 Z M 11.015625 0.390625 "/></g></g></g><g fill="#000000" fill-opacity="1"><g transform="translate(224.127536, 214.817052)"><g><path d="M 1.828125 0 L 1.828125 -41.328125 L 18.375 -41.328125 L 18.375 -33.34375 L 10.25 -33.34375 L 10.25 -25.3125 L 18.046875 -25.3125 L 18.046875 -17.515625 L 10.25 -17.515625 L 10.25 -8.03125 L 18.90625 -8.03125 L 18.90625 0 Z M 1.828125 0 "/></g></g></g><g fill="#000000" fill-opacity="1"><g transform="translate(243.946962, 214.817052)"><g><path d="M 1.828125 0 L 1.828125 -41.328125 L 10 -41.328125 L 10 -24.78125 L 13.859375 -41.328125 L 22.171875 -41.328125 L 17.5625 -22.421875 L 23.140625 0 L 14.578125 0 L 10.0625 -20.015625 L 10.0625 0 Z M 1.828125 0 "/></g></g></g><g fill="#000000" fill-opacity="1"><g transform="translate(266.652725, 214.817052)"><g><path d="M 5.390625 0 L 5.390625 -33.390625 L 0.484375 -33.390625 L 0.484375 -41.328125 L 18.5625 -41.328125 L 18.5625 -33.390625 L 13.65625 -33.390625 L 13.65625 0 Z M 5.390625 0 "/></g></g></g><g fill="#000000" fill-opacity="1"><g transform="translate(285.702468, 214.817052)"><g><path d="M 11.6875 0.390625 C 8.351562 0.390625 5.816406 -0.625 4.078125 -2.65625 C 2.347656 -4.695312 1.484375 -7.5625 1.484375 -11.25 L 1.484375 -30.9375 C 1.484375 -34.5 2.347656 -37.179688 4.078125 -38.984375 C 5.816406 -40.796875 8.351562 -41.703125 11.6875 -41.703125 C 15.019531 -41.703125 17.550781 -40.796875 19.28125 -38.984375 C 21.019531 -37.179688 21.890625 -34.5 21.890625 -30.9375 L 21.890625 -11.25 C 21.890625 -7.53125 21.019531 -4.660156 19.28125 -2.640625 C 17.550781 -0.617188 15.019531 0.390625 11.6875 0.390625 Z M 11.6875 -7.21875 C 12.425781 -7.21875 12.921875 -7.535156 13.171875 -8.171875 C 13.429688 -8.816406 13.5625 -9.71875 13.5625 -10.875 L 13.5625 -31.078125 C 13.5625 -31.972656 13.441406 -32.703125 13.203125 -33.265625 C 12.960938 -33.828125 12.472656 -34.109375 11.734375 -34.109375 C 10.359375 -34.109375 9.671875 -33.066406 9.671875 -30.984375 L 9.671875 -10.828125 C 9.671875 -9.640625 9.8125 -8.738281 10.09375 -8.125 C 10.382812 -7.519531 10.914062 -7.21875 11.6875 -7.21875 Z M 1.640625 -43.6875 L 1.640625 -50.65625 L 10.046875 -50.65625 L 10.046875 -43.6875 Z M 13.03125 -43.6875 L 13.03125 -50.65625 L 21.40625 -50.65625 L 21.40625 -43.6875 Z M 13.03125 -43.6875 "/></g></g></g><g fill="#000000" fill-opacity="1"><g transform="translate(309.081693, 214.817052)"><g><path d="M 1.828125 -41.328125 L 14.53125 -41.328125 C 16.550781 -41.328125 18.113281 -40.867188 19.21875 -39.953125 C 20.320312 -39.035156 21.066406 -37.75 21.453125 -36.09375 C 21.835938 -34.445312 22.03125 -32.34375 22.03125 -29.78125 C 22.03125 -27.4375 21.722656 -25.609375 21.109375 -24.296875 C 20.503906 -22.984375 19.445312 -22.066406 17.9375 -21.546875 C 19.195312 -21.296875 20.101562 -20.671875 20.65625 -19.671875 C 21.21875 -18.679688 21.5 -17.335938 21.5 -15.640625 L 21.40625 0 L 13.328125 0 L 13.328125 -16.171875 C 13.328125 -17.316406 13.101562 -18.050781 12.65625 -18.375 C 12.207031 -18.695312 11.390625 -18.859375 10.203125 -18.859375 L 10.203125 0 L 1.828125 0 Z M 12.21875 -26.03125 C 13.375 -26.03125 13.953125 -27.28125 13.953125 -29.78125 C 13.953125 -30.875 13.898438 -31.691406 13.796875 -32.234375 C 13.703125 -32.773438 13.523438 -33.148438 13.265625 -33.359375 C 13.015625 -33.566406 12.648438 -33.671875 12.171875 -33.671875 L 10.25 -33.671875 L 10.25 -26.03125 Z M 12.21875 -26.03125 "/></g></g></g></svg>