<svg xmlns="http://www.w3.org/2000/svg" xmlns:xlink="http://www.w3.org/1999/xlink" width="50" zoomAndPan="magnify" viewBox="0 0 37.5 74.999998" height="100" preserveAspectRatio="xMidYMid meet" version="1.0"><defs><clipPath id="78fd078abb"><path d="M 2.539062 2.878906 L 34.789062 2.878906 L 34.789062 34 L 2.539062 34 Z M 2.539062 2.878906 " clip-rule="nonzero"/></clipPath><clipPath id="dc0b8b8cbf"><path d="M 2.539062 42 L 34.789062 42 L 34.789062 73.378906 L 2.539062 73.378906 Z M 2.539062 42 " clip-rule="nonzero"/></clipPath><clipPath id="34982a498e"><path d="M 2.539062 19 L 34.789062 19 L 34.789062 57 L 2.539062 57 Z M 2.539062 19 " clip-rule="nonzero"/></clipPath></defs><path fill="#ff3131" d="M 31.058594 24.742188 C 30.195312 24.742188 29.382812 24.351562 28.839844 23.679688 L 20.882812 13.8125 C 19.738281 12.394531 17.59375 12.394531 16.449219 13.8125 L 8.492188 23.679688 C 7.949219 24.351562 7.136719 24.742188 6.277344 24.742188 C 3.871094 24.742188 2.539062 21.921875 4.058594 20.039062 L 16.449219 4.671875 C 17.59375 3.253906 19.738281 3.253906 20.882812 4.671875 L 33.273438 20.039062 C 34.792969 21.921875 33.464844 24.742188 31.058594 24.742188 Z M 31.058594 24.742188 " fill-opacity="1" fill-rule="nonzero"/><g clip-path="url(#78fd078abb)"><path stroke-linecap="square" transform="matrix(0.0761871, 0, 0, 0.0768686, -19.426679, -0.31082)" fill="none" stroke-linejoin="miter" d="M 662.648627 325.920105 C 651.317557 325.920105 640.653021 320.838379 633.52624 312.097809 L 529.085567 183.73339 C 514.062927 165.286722 485.914704 165.286722 470.892065 183.73339 L 366.451392 312.097809 C 359.32461 320.838379 348.660074 325.920105 337.380277 325.920105 C 305.796843 325.920105 288.313156 289.230038 308.25789 264.736115 L 470.892065 64.820984 C 485.914704 46.374316 514.062927 46.374316 529.085567 64.820984 L 691.719742 264.736115 C 711.664475 289.230038 694.23206 325.920105 662.648627 325.920105 Z M 662.648627 325.920105 " stroke="#1d1d1b" stroke-width="8" stroke-opacity="1" stroke-miterlimit="10"/></g><path fill="#ff3131" d="M 6.277344 51.503906 C 7.136719 51.503906 7.949219 51.894531 8.492188 52.566406 L 16.449219 62.4375 C 17.59375 63.855469 19.738281 63.855469 20.882812 62.4375 L 28.839844 52.566406 C 29.382812 51.894531 30.199219 51.503906 31.058594 51.503906 C 33.464844 51.503906 34.792969 54.324219 33.273438 56.207031 L 20.882812 71.574219 C 19.738281 72.992188 17.59375 72.992188 16.449219 71.574219 L 4.058594 56.207031 C 2.539062 54.324219 3.871094 51.503906 6.277344 51.503906 Z M 6.277344 51.503906 " fill-opacity="1" fill-rule="nonzero"/><g clip-path="url(#dc0b8b8cbf)"><path stroke-linecap="square" transform="matrix(0.0761871, 0, 0, 0.0768686, -19.426679, -0.31082)" fill="none" stroke-linejoin="miter" d="M 337.380277 674.069206 C 348.660074 674.069206 359.32461 679.150933 366.451392 687.891503 L 470.892065 816.306738 C 485.914704 834.753407 514.062927 834.753407 529.085567 816.306738 L 633.52624 687.891503 C 640.653021 679.150933 651.368829 674.069206 662.648627 674.069206 C 694.23206 674.069206 711.664475 710.759273 691.719742 735.253197 L 529.085567 935.168328 C 514.062927 953.614996 485.914704 953.614996 470.892065 935.168328 L 308.25789 735.253197 C 288.313156 710.759273 305.796843 674.069206 337.380277 674.069206 Z M 337.380277 674.069206 " stroke="#1d1d1b" stroke-width="8" stroke-opacity="1" stroke-miterlimit="10"/></g><path fill="#1d1d1b" d="M 18.667969 24.128906 C 18.332031 24.128906 18.058594 24.402344 18.058594 24.742188 L 18.058594 51.503906 C 18.058594 51.84375 18.332031 52.121094 18.667969 52.121094 C 19.003906 52.121094 19.277344 51.84375 19.277344 51.503906 L 19.277344 24.742188 C 19.277344 24.402344 19.003906 24.128906 18.667969 24.128906 Z M 18.667969 24.128906 " fill-opacity="1" fill-rule="nonzero"/><path fill="#ff3131" d="M 23.835938 38.125 C 23.835938 41.003906 21.523438 43.339844 18.667969 43.339844 C 15.8125 43.339844 13.496094 41.003906 13.496094 38.125 C 13.496094 35.242188 15.8125 32.90625 18.667969 32.90625 C 21.523438 32.90625 23.835938 35.242188 23.835938 38.125 Z M 23.835938 38.125 " fill-opacity="1" fill-rule="nonzero"/><g clip-path="url(#34982a498e)"><path stroke-linecap="round" transform="matrix(0.0761871, 0, 0, 0.0768686, -19.426679, -0.31082)" fill="none" stroke-linejoin="miter" d="M 567.847054 500.020064 C 567.847054 537.472391 537.494143 567.861117 500.014452 567.861117 C 462.53476 567.861117 432.130578 537.472391 432.130578 500.020064 C 432.130578 462.516921 462.53476 432.128195 500.014452 432.128195 C 537.494143 432.128195 567.847054 462.516921 567.847054 500.020064 Z M 567.847054 500.020064 " stroke="#1d1d1b" stroke-width="12" stroke-opacity="1" stroke-miterlimit="10"/></g></svg>