<svg xmlns="http://www.w3.org/2000/svg" xmlns:xlink="http://www.w3.org/1999/xlink" width="50" zoomAndPan="magnify" viewBox="0 0 37.5 37.499999" height="50" preserveAspectRatio="xMidYMid meet" version="1.0"><defs><clipPath id="684df1a1fa"><path d="M 16.6875 3.75 L 27.636719 3.75 L 27.636719 27.75 L 16.6875 27.75 Z M 16.6875 3.75 " clip-rule="nonzero"/></clipPath><clipPath id="5e813773ae"><path d="M 18.1875 3.75 L 26.136719 3.75 C 26.535156 3.75 26.917969 3.90625 27.199219 4.1875 C 27.480469 4.46875 27.636719 4.851562 27.636719 5.25 L 27.636719 26.25 C 27.636719 26.648438 27.480469 27.03125 27.199219 27.3125 C 26.917969 27.59375 26.535156 27.75 26.136719 27.75 L 18.1875 27.75 C 17.789062 27.75 17.40625 27.59375 17.125 27.3125 C 16.84375 27.03125 16.6875 26.648438 16.6875 26.25 L 16.6875 5.25 C 16.6875 4.851562 16.84375 4.46875 17.125 4.1875 C 17.40625 3.90625 17.789062 3.75 18.1875 3.75 Z M 18.1875 3.75 " clip-rule="nonzero"/></clipPath><clipPath id="c505ca90d1"><path d="M 2.121094 7.414062 L 35.121094 7.414062 L 35.121094 29.914062 L 2.121094 29.914062 Z M 2.121094 7.414062 " clip-rule="nonzero"/></clipPath><clipPath id="7ea633c6ce"><path d="M 2.121094 7.414062 L 19 7.414062 L 19 29.914062 L 2.121094 29.914062 Z M 2.121094 7.414062 " clip-rule="nonzero"/></clipPath></defs><g clip-path="url(#684df1a1fa)"><g clip-path="url(#5e813773ae)"><path fill="#ffffff" d="M 16.6875 3.75 L 27.636719 3.75 L 27.636719 27.75 L 16.6875 27.75 Z M 16.6875 3.75 " fill-opacity="1" fill-rule="nonzero"/></g></g><g clip-path="url(#c505ca90d1)"><path fill="#5e94ff" d="M 4.730469 7.457031 C 3.25 7.457031 2.046875 8.660156 2.046875 10.144531 L 2.046875 27.03125 C 2.046875 28.511719 3.25 29.714844 4.730469 29.714844 L 26.21875 29.714844 C 27.703125 29.714844 28.90625 28.511719 28.90625 27.03125 L 28.90625 17.425781 L 34.824219 9.285156 C 35.082031 8.933594 35.117188 8.472656 34.921875 8.085938 C 34.722656 7.699219 34.328125 7.457031 33.894531 7.457031 Z M 4.730469 7.457031 " fill-opacity="1" fill-rule="nonzero"/></g><path fill="#eceff1" d="M 6.652344 15.515625 C 6.652344 14.878906 7.164062 14.363281 7.800781 14.363281 L 23.152344 14.363281 C 23.785156 14.363281 24.300781 14.878906 24.300781 15.515625 C 24.300781 16.152344 23.785156 16.667969 23.152344 16.667969 L 7.800781 16.667969 C 7.164062 16.667969 6.652344 16.152344 6.652344 15.515625 Z M 6.652344 15.515625 " fill-opacity="1" fill-rule="evenodd"/><path fill="#eceff1" d="M 6.652344 21.65625 C 6.652344 21.019531 7.164062 20.503906 7.800781 20.503906 L 18.546875 20.503906 C 19.179688 20.503906 19.695312 21.019531 19.695312 21.65625 C 19.695312 22.292969 19.179688 22.808594 18.546875 22.808594 L 7.800781 22.808594 C 7.164062 22.808594 6.652344 22.292969 6.652344 21.65625 Z M 6.652344 21.65625 " fill-opacity="1" fill-rule="evenodd"/><g clip-path="url(#7ea633c6ce)"><path fill="#5485e5" d="M 18.546875 7.457031 L 18.546875 29.714844 L 4.730469 29.714844 C 3.25 29.714844 2.046875 28.511719 2.046875 27.03125 L 2.046875 10.144531 C 2.046875 8.660156 3.25 7.457031 4.730469 7.457031 Z M 18.546875 7.457031 " fill-opacity="1" fill-rule="evenodd"/></g><path fill="#d4d6d8" d="M 18.546875 14.363281 L 18.546875 16.667969 L 7.800781 16.667969 C 7.164062 16.667969 6.652344 16.152344 6.652344 15.515625 C 6.652344 14.878906 7.164062 14.363281 7.800781 14.363281 Z M 18.546875 14.363281 " fill-opacity="1" fill-rule="evenodd"/><path fill="#d4d6d8" d="M 18.546875 20.503906 L 18.546875 22.808594 L 7.800781 22.808594 C 7.164062 22.808594 6.652344 22.292969 6.652344 21.65625 C 6.652344 21.019531 7.164062 20.503906 7.800781 20.503906 Z M 18.546875 20.503906 " fill-opacity="1" fill-rule="evenodd"/></svg>